<svg width="19" height="19" viewBox="0 0 19 19" fill="none" xmlns="http://www.w3.org/2000/svg">
<path d="M7.93859 4.50647C8.2566 3.53342 9.62442 3.53343 9.94243 4.50647L10.9413 7.56279C11.0459 7.883 11.2955 8.13414 11.6137 8.23945L14.6508 9.24462C15.6177 9.56464 15.6177 10.9411 14.6508 11.2611L11.6137 12.2663C11.2955 12.3716 11.0459 12.6227 10.9413 12.9429L9.94243 15.9993C9.62442 16.9723 8.2566 16.9723 7.93859 15.9993L6.93974 12.9429C6.83509 12.6227 6.58552 12.3716 6.26733 12.2663L3.2302 11.2611C2.26327 10.9411 2.26327 9.56464 3.23021 9.24462L6.26733 8.23945C6.58552 8.13414 6.83509 7.883 6.93974 7.56279L7.93859 4.50647Z" fill="url(#paint0_linear_519_355)"/>
<path d="M13.6085 3.8049C13.6792 3.03724 14.793 3.03724 14.8637 3.8049C14.8918 4.10894 15.1311 4.34974 15.4332 4.37793C16.196 4.44911 16.196 5.56995 15.4332 5.64112C15.1311 5.66931 14.8918 5.91012 14.8637 6.21416C14.793 6.98181 13.6792 6.98181 13.6085 6.21416C13.5805 5.91012 13.3412 5.66931 13.0391 5.64112C12.2762 5.56995 12.2762 4.44911 13.0391 4.37793C13.3412 4.34974 13.5805 4.10894 13.6085 3.8049Z" fill="url(#paint1_linear_519_355)"/>
<defs>
<linearGradient id="paint0_linear_519_355" x1="13.7246" y1="-0.714614" x2="5.59755" y2="13.8845" gradientUnits="userSpaceOnUse">
<stop stop-color="#E4E2FF"/>
<stop offset="1" stop-color="#8D86FF"/>
</linearGradient>
<linearGradient id="paint1_linear_519_355" x1="13.7246" y1="-0.714614" x2="5.59755" y2="13.8845" gradientUnits="userSpaceOnUse">
<stop stop-color="#E4E2FF"/>
<stop offset="1" stop-color="#8D86FF"/>
</linearGradient>
</defs>
</svg>
