<svg width="18" height="18" viewBox="0 0 18 18" fill="none" xmlns="http://www.w3.org/2000/svg">
<path d="M8.17701 3.37634C8.68956 3.37634 9.16599 3.64196 9.43534 4.07802L9.84185 4.73648C10.1112 5.17254 10.5876 5.43816 11.1002 5.43816H14.2731C15.0897 5.43816 15.7519 6.10039 15.7519 6.91695V13.1449C15.7518 13.9614 15.0896 14.6237 14.2731 14.6237H3.72965C2.91324 14.6235 2.25164 13.9613 2.25159 13.1449V4.85514C2.25159 4.03866 2.91321 3.37649 3.72965 3.37634H8.17701Z" stroke="#CDCDDB" stroke-width="1.12503"/>
<path d="M8.17701 3.37634C8.68956 3.37634 9.16599 3.64196 9.43534 4.07802L9.84185 4.73648C10.1112 5.17254 10.5876 5.43816 11.1002 5.43816H14.2731C15.0897 5.43816 15.7519 6.10039 15.7519 6.91695V13.1449C15.7518 13.9614 15.0896 14.6237 14.2731 14.6237H3.72965C2.91324 14.6235 2.25164 13.9613 2.25159 13.1449V4.85514C2.25159 4.03866 2.91321 3.37649 3.72965 3.37634H8.17701Z" stroke="#CDCDDB" stroke-width="1.12503"/>
</svg>
