<svg width="18" height="18" viewBox="0 0 18 18" fill="none" xmlns="http://www.w3.org/2000/svg">
<path d="M11.0397 5.15562C11.1273 4.9333 11.442 4.9333 11.5297 5.15562L12.5058 7.63054C12.5325 7.69841 12.5862 7.75214 12.6541 7.77891L15.129 8.755C15.3514 8.84268 15.3514 9.15731 15.129 9.24499L12.6541 10.2211C12.5862 10.2479 12.5325 10.3016 12.5058 10.3695L11.5297 12.8444C11.442 13.0667 11.1273 13.0667 11.0397 12.8444L10.0636 10.3695C10.0368 10.3016 9.98308 10.2479 9.9152 10.2211L7.44029 9.24499C7.21797 9.15731 7.21797 8.84268 7.44029 8.755L9.9152 7.77891C9.98308 7.75214 10.0368 7.69841 10.0636 7.63054L11.0397 5.15562Z" fill="#CDCDDB"/>
<path d="M2.25012 5.50339L7.90932 5.50339" stroke="#CDCDDB" stroke-linecap="round" stroke-linejoin="round"/>
<path d="M2.25012 10.3093H5.65356" stroke="#CDCDDB" stroke-linecap="round" stroke-linejoin="round"/>
<path d="M2.25012 7.90634H5.65356" stroke="#CDCDDB" stroke-linecap="round" stroke-linejoin="round"/>
<path d="M2.25012 12.7122H7.90932" stroke="#CDCDDB" stroke-linecap="round" stroke-linejoin="round"/>
</svg>
