<svg width="18" height="18" viewBox="0 0 18 18" fill="none" xmlns="http://www.w3.org/2000/svg">
<path d="M9.38257 13.5526L11.2033 15.3733L12.1137 16.2837M10.5964 10.518C10.5964 12.8643 8.69433 14.7664 6.34801 14.7664C4.00168 14.7664 2.09961 12.8643 2.09961 10.518C2.09961 8.17166 4.00168 6.26959 6.34801 6.26959C8.69433 6.26959 10.5964 8.17166 10.5964 10.518Z" stroke="#757385" stroke-width="1.2" stroke-linecap="round" stroke-linejoin="round"/>
<path d="M12.5725 2.2088C12.642 2.03256 12.8914 2.03256 12.9609 2.2088L13.6198 3.87955C13.6411 3.93336 13.6837 3.97595 13.7375 3.99718L15.4082 4.65611C15.5845 4.72562 15.5845 4.97505 15.4082 5.04456L13.7375 5.70349C13.6837 5.72471 13.6411 5.76731 13.6198 5.82112L12.9609 7.49187C12.8914 7.66811 12.642 7.66811 12.5725 7.49187L11.9135 5.82112C11.8923 5.76731 11.8497 5.72471 11.7959 5.70349L10.1252 5.04456C9.94891 4.97505 9.94891 4.72562 10.1252 4.65611L11.7959 3.99718C11.8497 3.97595 11.8923 3.93336 11.9135 3.87955L12.5725 2.2088Z" fill="#757385"/>
</svg>
