<svg width="24" height="24" viewBox="0 0 24 24" fill="none" xmlns="http://www.w3.org/2000/svg">
<path d="M10.9004 4.50168C11.5838 4.50168 12.219 4.85582 12.5781 5.43723L13.1201 6.31516C13.4793 6.89656 14.1145 7.2507 14.7979 7.2507H19.0283C20.117 7.2507 21 8.13366 21 9.22238V17.5261C20.9999 18.6148 20.117 19.4978 19.0283 19.4978H4.9707C3.88219 19.4976 3.00006 18.6146 3 17.5261V6.47336C3 5.38475 3.88214 4.50187 4.9707 4.50168H10.9004Z" stroke="#CDCDDB" stroke-width="1.5"/>
<path d="M10.9004 4.50168C11.5838 4.50168 12.219 4.85582 12.5781 5.43723L13.1201 6.31516C13.4793 6.89656 14.1145 7.2507 14.7979 7.2507H19.0283C20.117 7.2507 21 8.13366 21 9.22238V17.5261C20.9999 18.6148 20.117 19.4978 19.0283 19.4978H4.9707C3.88219 19.4976 3.00006 18.6146 3 17.5261V6.47336C3 5.38475 3.88214 4.50187 4.9707 4.50168H10.9004Z" stroke="#CDCDDB" stroke-width="1.5"/>
</svg>
