<svg width="19" height="19" viewBox="0 0 19 19" fill="none" xmlns="http://www.w3.org/2000/svg">
<circle cx="14.8281" cy="4.89275" r="1.71316" stroke="#CDCDDB" stroke-width="1.125"/>
<path d="M8.25061 4.76166C8.5763 3.9491 9.69445 3.94909 10.0201 4.76166L11.0533 7.34076C11.2631 7.86397 11.6724 8.28284 12.192 8.49896L14.7242 9.5517C15.5223 9.8836 15.5223 11.0469 14.7242 11.3788L12.192 12.4316C11.6724 12.6477 11.2631 13.0665 11.0533 13.5898L10.0201 16.1689C9.69445 16.9814 8.5763 16.9814 8.25061 16.1689L7.21741 13.5898C7.00768 13.0665 6.59838 12.6477 6.07874 12.4316L3.54651 11.3788C2.74845 11.0469 2.74844 9.8836 3.54651 9.5517L6.07874 8.49896C6.59832 8.28284 7.0077 7.86397 7.21741 7.34076L8.25061 4.76166Z" stroke="#CDCDDB" stroke-width="1.125"/>
</svg>
