<svg width="18" height="18" viewBox="0 0 18 18" fill="none" xmlns="http://www.w3.org/2000/svg">
<g clip-path="url(#clip0_698_138)">
<path d="M9.00012 1.75043C13.0042 1.75043 16.2501 4.99636 16.2501 9.00043C16.2499 13.0043 13.004 16.2504 9.00012 16.2504C4.99626 16.2504 1.75035 13.0043 1.75012 9.00043C1.75012 4.9964 4.99611 1.75049 9.00012 1.75043ZM9.297 6.06683C9.14687 5.94208 8.93653 5.92739 8.77161 6.02094L8.70422 6.06683L6.06946 8.25922C5.87318 8.42272 5.84584 8.71498 6.00891 8.91156C6.17247 9.10808 6.46462 9.13453 6.66125 8.97113L8.53723 7.41058V11.5756C8.53723 11.8314 8.74434 12.0394 9.00012 12.0395C9.25593 12.0395 9.46301 11.8314 9.46301 11.5756V7.41058L11.339 8.97113C11.5355 9.13432 11.8268 9.10777 11.9904 8.91156C12.1537 8.71492 12.1273 8.42275 11.9308 8.25922L9.297 6.06683Z" fill="#B1ACFF"/>
</g>
<defs>
<clipPath id="clip0_698_138">
<rect width="14.5" height="14.5" fill="white" transform="translate(1.75024 1.75)"/>
</clipPath>
</defs>
</svg>
